# xmcd
#
# Track frame offsets:
#   150
#   16920
#   36120
#   52667
#   69135
#   93035
#   107270
#   123690
#   141580
#
# Disc length: 2248 seconds
#
# Revision: 0
# Processed by: cddbd v1.4PL0 Copyright (c) Steve Scherf et al.
# Submitted via: uFREEDB 1.6.0
#
DISCID=6808c609
DTITLE=Angel Lozano - Un Angel con Sabor
DYEAR=2003
DGENRE=Alternative
TTITLE0=Tu nombre me sabe a hierba
TTITLE1=Amor, amor, amor
TTITLE2=Me duele el corazon
TTITLE3=El beso
TTITLE4=Y nos dieron las diez
TTITLE5=Sangre Española
TTITLE6=Tractor amarillo
TTITLE7=Sevilla
TTITLE8=Asopao (Potpurri)
EXTD=
EXTT0=
EXTT1=
EXTT2=
EXTT3=
EXTT4=
EXTT5=
EXTT6=
EXTT7=
EXTT8=
PLAYORDER=
